<svg width="24" height="24" viewBox="0 0 24 24" fill="none" xmlns="http://www.w3.org/2000/svg">
<path fill-rule="evenodd" clip-rule="evenodd" d="M17.4377 11.9975L22.8761 6.56392C24.3765 5.06632 24.3765 2.628 22.8761 1.1304C21.3737 -0.3768 18.9391 -0.3768 17.4377 1.1304L12.0002 6.56392L6.5628 1.1304C5.06232 -0.3768 2.62776 -0.3768 1.12536 1.1304C-0.37512 2.628 -0.37512 5.06632 1.12536 6.56392L6.5628 11.9975L1.12536 17.4408C-0.37512 18.9384 -0.37512 21.3768 1.12536 22.8744C2.62776 24.3816 5.06232 24.3816 6.5628 22.8744L12.0002 17.4408L17.4377 22.8744C18.9391 24.3816 21.3737 24.3816 22.8761 22.8744C24.3765 21.3768 24.3765 18.9384 22.8761 17.4408L17.4377 11.9975Z" fill="#EBEBEB"/>
</svg>
