<svg width="53" height="45" viewBox="0 0 53 45" fill="none" xmlns="http://www.w3.org/2000/svg">
<path d="M26.4748 45C26.1265 45.002 25.7811 44.9352 25.4586 44.8035C25.1361 44.6717 24.8427 44.4776 24.5954 44.2323L4.02718 23.6376C1.44718 21.0307 0 17.511 0 13.8432C0 10.1755 1.44718 6.65582 4.02718 4.04886C6.62735 1.45603 10.1495 0 13.8216 0C17.4936 0 21.0158 1.45603 23.6159 4.04886L26.4748 6.90776L29.3337 4.04886C31.9339 1.45603 35.4561 0 39.1281 0C42.8001 0 46.3223 1.45603 48.9225 4.04886C51.5025 6.65582 52.9497 10.1755 52.9497 13.8432C52.9497 17.511 51.5025 21.0307 48.9225 23.6376L28.3543 44.2323C28.107 44.4776 27.8136 44.6717 27.4911 44.8035C27.1686 44.9352 26.8232 45.002 26.4748 45ZM13.8216 5.29301C12.701 5.28794 11.5905 5.50526 10.5545 5.93239C9.51848 6.35951 8.57752 6.98796 7.7861 7.78131C6.18739 9.38844 5.28995 11.5631 5.28995 13.83C5.28995 16.0969 6.18739 18.2716 7.7861 19.8787L26.4748 38.5939L45.1636 19.8787C46.7623 18.2716 47.6597 16.0969 47.6597 13.83C47.6597 11.5631 46.7623 9.38844 45.1636 7.78131C43.5321 6.23991 41.3726 5.38115 39.1281 5.38115C36.8836 5.38115 34.7242 6.23991 33.0927 7.78131L28.3543 12.5461C28.1082 12.7943 27.8154 12.9912 27.4929 13.1256C27.1703 13.26 26.8243 13.3292 26.4748 13.3292C26.1254 13.3292 25.7794 13.26 25.4568 13.1256C25.1342 12.9912 24.8415 12.7943 24.5954 12.5461L19.857 7.78131C19.0656 6.98796 18.1246 6.35951 17.0886 5.93239C16.0526 5.50526 14.9421 5.28794 13.8216 5.29301Z" fill="#D82D7E"/>
<path d="M13.8216 5.29301C12.701 5.28794 11.5905 5.50526 10.5545 5.93239C9.51848 6.35951 8.57752 6.98796 7.7861 7.78131C6.18739 9.38844 5.28995 11.5631 5.28995 13.83C5.28995 16.0969 6.18739 18.2716 7.7861 19.8787L26.4748 38.5939L45.1636 19.8787C46.7623 18.2716 47.6597 16.0969 47.6597 13.83C47.6597 11.5631 46.7623 9.38844 45.1636 7.78131C43.5321 6.23991 41.3726 5.38115 39.1281 5.38115C36.8836 5.38115 34.7242 6.23991 33.0927 7.78131L28.3543 12.5461C28.1082 12.7943 27.8154 12.9912 27.4929 13.1256C27.1703 13.26 26.8243 13.3292 26.4748 13.3292C26.1254 13.3292 25.7794 13.26 25.4568 13.1256C25.1342 12.9912 24.8415 12.7943 24.5954 12.5461L19.857 7.78131C19.0656 6.98796 18.1246 6.35951 17.0886 5.93239C16.0526 5.50526 14.9421 5.28794 13.8216 5.29301Z" fill="#D82D7E"/>
</svg>
