<svg width="56" height="56" viewBox="0 0 56 56" fill="none" xmlns="http://www.w3.org/2000/svg">
<path d="M27.6108 0C12.3864 0 0 12.3864 0 27.6108C0 42.8352 12.3864 55.2216 27.6108 55.2216C42.8352 55.2216 55.2216 42.8364 55.2216 27.6108C55.2216 12.3852 42.8352 0 27.6108 0ZM39.2976 40.0212C38.9508 40.542 38.3796 40.8228 37.7976 40.8228C37.4544 40.8228 37.1076 40.7256 36.8004 40.5204C33.8328 38.5416 28.8 37.2216 24.6 37.2228C20.1432 37.2252 16.8024 38.3196 16.7688 38.3304C15.828 38.6496 14.8068 38.136 14.4924 37.1928C14.178 36.2496 14.688 35.2296 15.6312 34.9164C15.7896 34.8636 19.566 33.6264 24.6 33.624C28.8 33.6216 34.6416 34.7544 38.7984 37.5252C39.6264 38.0772 39.8496 39.1944 39.2976 40.0212ZM42.888 32.6532C42.498 33.2796 41.8248 33.624 41.1372 33.624C40.7652 33.624 40.3884 33.5244 40.05 33.312C34.6692 29.9592 29.1396 29.25 24.3756 29.292C18.9972 29.34 14.6964 30.366 14.6232 30.3876C13.5348 30.6972 12.39 30.0612 12.0792 28.968C11.7684 27.8724 12.4056 26.7336 13.5 26.424C13.8324 26.3292 18.1248 25.2732 24.0012 25.224C29.3592 25.1796 36.036 25.956 42.2304 29.8152C43.194 30.4152 43.4904 31.6872 42.888 32.6532ZM46.47 24.0372C46.0224 24.798 45.2208 25.2216 44.3976 25.2216C43.9848 25.2216 43.5672 25.1148 43.1844 24.8916C36.9132 21.21 29.2884 20.4288 23.9964 20.4216C23.9712 20.4216 23.946 20.4216 23.9208 20.4216C17.5212 20.4216 12.5928 21.5472 12.5436 21.5592C11.25 21.8556 9.9624 21.0564 9.6624 19.7652C9.3624 18.4752 10.1628 17.1864 11.4528 16.8852C11.6748 16.8336 16.9404 15.6216 23.9208 15.6216C23.9484 15.6216 23.976 15.6216 24.0036 15.6216C29.8896 15.63 38.4168 16.5252 45.6156 20.7516C46.758 21.4236 47.1408 22.8948 46.47 24.0372Z" fill="#1ED760"/>
</svg>
